<?xml version="1.0" encoding="utf-8"?>
<!-- Generator: Adobe Illustrator 16.0.4, SVG Export Plug-In . SVG Version: 6.00 Build 0)  -->
<!DOCTYPE svg PUBLIC "-//W3C//DTD SVG 1.1//EN" "http://www.w3.org/Graphics/SVG/1.1/DTD/svg11.dtd">
<svg version="1.1" xmlns="http://www.w3.org/2000/svg" xmlns:xlink="http://www.w3.org/1999/xlink" x="0px" y="0px" width="512px"
	 height="512px" viewBox="0 0 512 512" enable-background="new 0 0 512 512" xml:space="preserve">
<g id="Layer_3">
	<g>
		<polyline fill="none" stroke="#FFFFFF" stroke-width="2" stroke-miterlimit="10" points="113.492,299.208 140.492,237.378 
			175.992,199.349 		"/>
		<polygon fill="#FF9CFB" stroke="#FFFFFF" stroke-width="2" stroke-miterlimit="10" points="243.992,245.378 243.992,314.879 
			306.492,314.879 306.492,173.878 275.628,173.878 		"/>
		<polygon fill="#DAA0F9" stroke="#FFFFFF" stroke-width="2" stroke-miterlimit="10" points="275.628,173.878 275.628,173.878 
			243.992,245.378 		"/>
		<polyline fill="none" stroke="#FFFFFF" stroke-width="2" stroke-miterlimit="10" points="175.992,199.349 199.767,173.878 
			199.767,173.878 		"/>
		<polygon fill="#FF73F9" stroke="#FFFFFF" stroke-width="2" stroke-miterlimit="10" points="179.994,314.879 243.992,314.879 
			243.992,245.378 		"/>
		<polygon fill="#57EFFF" stroke="#FFFFFF" stroke-width="2" stroke-miterlimit="10" points="216.992,173.878 275.628,173.878 
			343.992,19.378 199.767,173.878 202.332,173.878 		"/>
		<polygon fill="#57EFFF" stroke="#FFFFFF" stroke-width="2" stroke-miterlimit="10" points="160.671,314.879 148.242,314.879 
			113.492,314.879 113.492,301.707 113.492,299.208 40.492,466.378 179.994,314.879 175.992,314.879 		"/>
		<polygon fill="#57EFFF" stroke="#FFFFFF" stroke-width="2" stroke-miterlimit="10" points="113.492,314.879 148.242,314.879 
			175.992,240.628 175.992,202.207 175.992,199.349 140.492,237.378 113.492,299.208 113.492,301.707 		"/>
		<polygon fill="#DAA0F9" stroke="#FFFFFF" stroke-width="2" stroke-miterlimit="10" points="175.992,314.879 175.992,288.954 
			160.671,314.879 		"/>
		<polygon fill="#B8A2F4" stroke="#FFFFFF" stroke-width="2" stroke-miterlimit="10" points="148.242,314.879 160.671,314.879 
			175.992,288.954 175.992,240.628 		"/>
		<polygon fill="#DAA0F9" stroke="#FFFFFF" stroke-width="2" stroke-miterlimit="10" points="243.992,245.378 275.628,173.878 
			243.992,173.878 		"/>
		<polygon fill="#57EFFF" stroke="#FFFFFF" stroke-width="2" stroke-miterlimit="10" points="175.992,202.207 175.992,240.628 
			216.992,173.878 202.332,173.878 199.767,173.878 175.992,199.349 		"/>
		<polygon fill="#E476FF" stroke="#FFFFFF" stroke-width="2" stroke-linejoin="bevel" stroke-miterlimit="10" points="
			243.992,173.878 175.992,288.954 175.992,314.879 179.994,314.879 243.992,245.378 		"/>
		<polygon fill="#B2A2F7" stroke="#FFFFFF" stroke-width="2" stroke-miterlimit="10" points="175.992,240.628 175.992,288.954 
			243.992,173.878 216.992,173.878 		"/>
	</g>
	<polyline fill="none" stroke="#FFFFFF" stroke-width="2" stroke-miterlimit="10" points="113.492,314.879 113.492,173.878 
		243.992,173.878 	"/>
	<polyline fill="none" stroke="#FFFFFF" stroke-width="2" stroke-miterlimit="10" points="175.992,314.879 175.992,173.878 
		306.492,173.878 	"/>
	<polyline fill="none" stroke="#C9C9C9" stroke-width="2" stroke-miterlimit="10" points="113.492,304.71 113.492,173.878 
		202.332,173.878 	"/>
	
		<line fill="none" stroke="#C9C9C9" stroke-width="2" stroke-miterlimit="10" x1="175.992" y1="202.207" x2="175.992" y2="173.878"/>
</g>
<g id="Layer_2">
	<g>
		<path fill="#AAAAAA" d="M224.408,395.361c-0.816,1.655-1.884,3.06-3.204,4.212c-1.32,1.151-2.856,2.04-4.608,2.664
			c-1.752,0.623-3.684,0.936-5.796,0.936c-2.64,0-4.98-0.493-7.02-1.476c-2.041-0.983-3.756-2.315-5.148-3.996
			c-1.393-1.68-2.448-3.637-3.168-5.868c-0.72-2.232-1.08-4.619-1.08-7.164c0-2.688,0.348-5.244,1.044-7.668
			c0.695-2.424,1.752-4.56,3.168-6.408c1.416-1.847,3.215-3.323,5.4-4.428c2.184-1.104,4.739-1.656,7.668-1.656
			c1.728,0,3.384,0.265,4.968,0.792c1.584,0.529,3,1.296,4.248,2.304c1.248,1.009,2.292,2.269,3.132,3.78
			c0.839,1.512,1.379,3.253,1.62,5.22h-1.44c-0.288-1.823-0.817-3.395-1.584-4.716c-0.769-1.319-1.705-2.423-2.808-3.312
			c-1.104-0.888-2.353-1.548-3.744-1.98c-1.393-0.432-2.856-0.647-4.392-0.647c-2.929,0-5.413,0.564-7.452,1.691
			c-2.041,1.129-3.672,2.592-4.896,4.393c-1.224,1.8-2.113,3.815-2.664,6.048c-0.552,2.231-0.828,4.428-0.828,6.588
			c0,2.257,0.324,4.417,0.972,6.479c0.648,2.064,1.595,3.889,2.844,5.473c1.248,1.584,2.808,2.844,4.68,3.779
			c1.872,0.937,4.032,1.404,6.48,1.404c1.824,0,3.528-0.275,5.112-0.828c1.584-0.551,2.988-1.355,4.212-2.412
			c1.224-1.055,2.219-2.314,2.988-3.779c0.767-1.464,1.224-3.132,1.368-5.004h1.44C225.728,391.845,225.224,393.705,224.408,395.361
			z"/>
		<path fill="#AAAAAA" d="M258.752,402.38v-9.144h-0.144c-0.673,2.88-2.149,5.256-4.428,7.128c-2.28,1.872-5.245,2.808-8.892,2.808
			c-1.92,0-3.685-0.276-5.292-0.828c-1.609-0.551-3-1.392-4.176-2.52c-1.177-1.128-2.088-2.521-2.736-4.177
			c-0.648-1.655-0.972-3.563-0.972-5.724v-24.552h1.44v24.336c0,2.16,0.312,3.996,0.936,5.508c0.624,1.512,1.476,2.761,2.556,3.744
			c1.08,0.984,2.328,1.704,3.744,2.16c1.415,0.456,2.916,0.684,4.5,0.684c2.207,0,4.151-0.42,5.832-1.26
			c1.68-0.839,3.084-1.968,4.212-3.384c1.127-1.415,1.98-3.061,2.556-4.933c0.576-1.872,0.864-3.839,0.864-5.903v-20.952h1.44
			v37.008H258.752z"/>
		<path fill="#AAAAAA" d="M269.696,375.741c0.864-3.359,2.567-6.072,5.112-8.137c2.544-2.062,5.784-3.096,9.72-3.096
			c2.543,0,4.799,0.529,6.768,1.584c1.968,1.057,3.611,2.473,4.932,4.248c1.319,1.776,2.328,3.841,3.024,6.192
			c0.695,2.352,1.044,4.823,1.044,7.416c0,2.784-0.36,5.353-1.08,7.704c-0.72,2.352-1.764,4.38-3.132,6.084
			c-1.368,1.704-3.024,3.036-4.968,3.995c-1.944,0.96-4.14,1.44-6.588,1.44c-3.792,0-6.973-1.031-9.54-3.096
			c-2.568-2.063-4.333-4.752-5.292-8.064h-0.144v10.368h-1.44v-51.408h1.44v24.769H269.696z M270.561,390.789
			c0.671,2.16,1.644,4.057,2.916,5.688c1.271,1.633,2.844,2.929,4.716,3.889s3.983,1.439,6.336,1.439c2.399,0,4.5-0.479,6.3-1.439
			c1.8-0.96,3.288-2.269,4.464-3.925c1.175-1.655,2.063-3.563,2.664-5.724c0.6-2.16,0.9-4.416,0.9-6.768
			c0-2.16-0.277-4.308-0.828-6.444c-0.552-2.136-1.404-4.056-2.556-5.76c-1.152-1.703-2.628-3.097-4.428-4.176
			c-1.8-1.08-3.973-1.62-6.516-1.62c-4.512,0-8.136,1.548-10.872,4.644c-2.736,3.096-4.104,7.549-4.104,13.356
			C269.552,386.349,269.888,388.628,270.561,390.789z"/>
		<path fill="#AAAAAA" d="M306.956,391.113c0.551,2.136,1.404,3.995,2.556,5.579c1.152,1.585,2.64,2.833,4.464,3.744
			c1.823,0.913,4.056,1.368,6.696,1.368c3.888,0,7.116-1.02,9.684-3.06c2.567-2.04,4.164-5.1,4.788-9.181h1.44
			c-0.529,4.32-2.232,7.668-5.112,10.044c-2.88,2.376-6.433,3.564-10.656,3.564c-2.88,0.047-5.34-0.408-7.38-1.368
			c-2.041-0.959-3.708-2.315-5.004-4.067c-1.296-1.752-2.257-3.816-2.88-6.192c-0.624-2.376-0.936-4.932-0.936-7.668
			c0-3.071,0.456-5.808,1.368-8.208c0.911-2.399,2.112-4.428,3.6-6.084c1.487-1.656,3.215-2.916,5.184-3.78
			c1.967-0.864,3.983-1.296,6.048-1.296c2.88,0,5.364,0.553,7.452,1.656c2.088,1.104,3.791,2.568,5.112,4.392
			c1.32,1.825,2.279,3.913,2.88,6.265c0.6,2.352,0.852,4.8,0.756,7.344h-30.96C306.103,386.661,306.403,388.977,306.956,391.113z
			 M334.64,376.281c-0.625-2.04-1.548-3.828-2.772-5.364c-1.224-1.536-2.748-2.747-4.572-3.636
			c-1.825-0.888-3.937-1.332-6.336-1.332c-2.016,0-3.9,0.385-5.652,1.151c-1.753,0.769-3.289,1.885-4.608,3.349
			c-1.32,1.465-2.388,3.229-3.204,5.292c-0.817,2.064-1.296,4.392-1.44,6.983h29.52C335.575,380.468,335.263,378.321,334.64,376.281
			z"/>
		<path fill="#AAAAAA" d="M348.104,402.38v-7.056h1.44v7.056H348.104z"/>
		<path fill="#AAAAAA" d="M390.799,389.997c-0.385,1.632-1.068,3.096-2.052,4.392c-0.984,1.296-2.137,2.389-3.456,3.276
			c-1.32,0.889-2.761,1.561-4.32,2.016c-1.56,0.457-3.132,0.685-4.716,0.685c-2.592,0-4.849-0.479-6.768-1.44
			c-1.921-0.96-3.517-2.243-4.788-3.852c-1.272-1.608-2.232-3.492-2.88-5.652c-0.648-2.16-0.973-4.416-0.973-6.768
			c0-2.496,0.336-4.836,1.009-7.021c0.671-2.184,1.68-4.104,3.023-5.76s3.012-2.964,5.004-3.924c1.991-0.96,4.284-1.44,6.876-1.44
			c1.775,0,3.432,0.276,4.969,0.828c1.535,0.553,2.915,1.309,4.14,2.268c1.224,0.961,2.256,2.088,3.096,3.385
			c0.84,1.296,1.451,2.712,1.836,4.248h0.145v-9.864h1.439v35.784c0,5.087-1.344,8.819-4.032,11.195s-6.479,3.564-11.376,3.564
			c-1.871,0-3.647-0.216-5.327-0.648c-1.682-0.432-3.168-1.115-4.465-2.052c-1.296-0.936-2.328-2.137-3.096-3.6
			c-0.769-1.465-1.177-3.253-1.224-5.364h1.439c0.048,1.823,0.42,3.384,1.116,4.68c0.695,1.296,1.62,2.352,2.772,3.168
			c1.151,0.815,2.483,1.415,3.996,1.8c1.512,0.384,3.083,0.576,4.716,0.576c4.511,0,7.979-1.068,10.403-3.204
			s3.637-5.508,3.637-10.115v-11.16H390.799z M389.971,376.46c-0.601-2.016-1.488-3.804-2.664-5.364
			c-1.177-1.559-2.652-2.808-4.428-3.744c-1.776-0.936-3.815-1.403-6.12-1.403c-2.4,0-4.5,0.444-6.3,1.332
			c-1.8,0.889-3.312,2.1-4.536,3.636c-1.224,1.536-2.136,3.312-2.735,5.328c-0.602,2.016-0.9,4.152-0.9,6.408
			c0,2.304,0.299,4.439,0.9,6.407c0.6,1.969,1.486,3.685,2.663,5.148c1.176,1.465,2.629,2.616,4.356,3.456s3.72,1.26,5.976,1.26
			c2.4,0,4.512-0.432,6.337-1.296c1.823-0.864,3.348-2.027,4.571-3.492c1.225-1.464,2.16-3.191,2.809-5.184
			c0.647-1.991,0.972-4.092,0.972-6.3C390.871,380.541,390.57,378.476,389.971,376.46z"/>
		<path fill="#AAAAAA" d="M400.159,358.245v-7.272h1.44v7.272H400.159z M400.159,402.38v-37.008h1.44v37.008H400.159z"/>
		<path fill="#AAAAAA" d="M405.559,365.373h6.264v-8.208c0-1.487,0.228-2.64,0.685-3.456c0.455-0.815,1.044-1.428,1.764-1.836
			c0.72-0.407,1.512-0.659,2.376-0.756c0.864-0.096,1.68-0.145,2.448-0.145c0.672,0,1.26,0.036,1.764,0.108s0.947,0.133,1.332,0.18
			v1.44c-0.673-0.096-1.272-0.168-1.8-0.217c-0.528-0.047-1.057-0.071-1.584-0.071c-2.304,0-3.805,0.421-4.5,1.26
			c-0.696,0.841-1.044,2.173-1.044,3.996v7.704h7.992v1.439h-7.992v35.568h-1.44v-35.568h-6.264V365.373z"/>
	</g>
</g>
<g id="Layer_4" display="none">
	
		<text transform="matrix(1 0 0 1 192.1523 402.3804)" display="inline" fill="#AAAAAA" font-family="'HelveticaNeue-UltraLight'" font-size="72">cube.gif</text>
</g>
</svg>
